<svg xmlns="http://www.w3.org/2000/svg" width="512" height="512" viewBox="0 0 512 512">
  <defs>
    <radialGradient id="bg" cx="50%" cy="50%" r="50%">
      <stop offset="0%" stop-color="#1a2e1a"/>
      <stop offset="100%" stop-color="#050f05"/>
    </radialGradient>
    <filter id="glow"><feGaussianBlur stdDeviation="6" result="blur"/><feMerge><feMergeNode in="blur"/><feMergeNode in="SourceGraphic"/></feMerge></filter>
    <filter id="glow2"><feGaussianBlur stdDeviation="12" result="blur"/><feMerge><feMergeNode in="blur"/><feMergeNode in="SourceGraphic"/></feMerge></filter>
  </defs>
  <rect width="512" height="512" rx="110" fill="url(#bg)"/>
  <rect x="96" y="156" width="44" height="120" rx="14" fill="#3ecf8e" opacity=".3" filter="url(#glow2)"/>
  <rect x="372" y="156" width="44" height="120" rx="14" fill="#3ecf8e" opacity=".3" filter="url(#glow2)"/>
  <rect x="156" y="200" width="200" height="32" rx="16" fill="#3ecf8e" opacity=".3" filter="url(#glow2)"/>
  <rect x="156" y="198" width="200" height="36" rx="18" fill="#3ecf8e" filter="url(#glow)"/>
  <rect x="90" y="152" width="50" height="128" rx="16" fill="#3ecf8e" filter="url(#glow)"/>
  <rect x="372" y="152" width="50" height="128" rx="16" fill="#3ecf8e" filter="url(#glow)"/>
  <rect x="146" y="168" width="26" height="96" rx="10" fill="#2ecc8a"/>
  <rect x="340" y="168" width="26" height="96" rx="10" fill="#2ecc8a"/>
  <rect x="94" y="156" width="22" height="12" rx="6" fill="white" opacity=".25"/>
  <rect x="376" y="156" width="22" height="12" rx="6" fill="white" opacity=".25"/>
  <text x="256" y="368" font-family="Arial Black" font-size="68" font-weight="900" fill="#3ecf8e" text-anchor="middle" filter="url(#glow)">Personal</text>
  <text x="256" y="450" font-family="Arial Black" font-size="68" font-weight="900" fill="white" text-anchor="middle" opacity=".9">Pro</text>
</svg>
